<svg xmlns="http://www.w3.org/2000/svg" viewBox="0 0 64 64" role="img" aria-labelledby="title desc">
  <title>Jenkins Skill Icon</title>
  <desc>Simple gear and bow-tie icon representing Jenkins CI skill.</desc>
  <rect width="64" height="64" rx="12" fill="#111827"/>
  <circle cx="22" cy="24" r="10" fill="#f97316"/>
  <path d="M22 16a8 8 0 0 1 7.9 6.6l3.3.7-2 3.5 2 3.5-3.3.7A8 8 0 0 1 22 32a8 8 0 0 1-7.9-6.6l-3.3-.7 2-3.5-2-3.5 3.3-.7A8 8 0 0 1 22 16z" fill="#fbbf24" opacity="0.6"/>
  <path d="M36 36c4.4 0 8 3.6 8 8v6H20v-6c0-4.4 3.6-8 8-8z" fill="#e5e7eb"/>
  <path d="M24 40l4 4 4-4 4 4" fill="none" stroke="#111827" stroke-width="2.2" stroke-linecap="round" stroke-linejoin="round"/>
</svg>
