<svg xmlns="http://www.w3.org/2000/svg" viewBox="0 0 64 64" role="img" aria-labelledby="title desc">
  <title>Salesforce Skill Icon</title>
  <desc>Simple blue cloud icon representing Salesforce skill.</desc>
  <defs>
    <linearGradient id="sfGradient" x1="0" y1="0" x2="1" y2="1">
      <stop offset="0%" stop-color="#1b9cea"/>
      <stop offset="100%" stop-color="#0b65d8"/>
    </linearGradient>
  </defs>
  <rect width="64" height="64" rx="12" fill="#0f172a"/>
  <g transform="translate(8,16)">
    <path fill="url(#sfGradient)" d="M14 26c-3.5 0-6.5-2.5-7.2-5.8C5 19.6 4 17.8 4 15.7 4 11.5 7.4 8 11.7 8c1.2 0 2.3.3 3.3.8C16 6 18.6 4 21.9 4c3.9 0 7.1 2.7 7.9 6.3.6-.2 1.2-.3 1.9-.3 3.9 0 7 3.1 7 7 0 1.5-.5 2.9-1.2 4.1 1.5.9 2.5 2.6 2.5 4.6 0 3-2.4 5.4-5.4 5.4H14z"/>
    <text x="17" y="21" text-anchor="middle" font-family="system-ui, -apple-system, BlinkMacSystemFont, 'Segoe UI', sans-serif" font-size="8" fill="#e5f4ff" font-weight="600">SF</text>
  </g>
</svg>
